#N canvas 298 29 1216 911 12;
#X obj 35 143 receiveOSC;
#X obj 35 244 / 32;
#X obj 35 267 vsl 32 64 0 127 0 0 empty empty empty 0 -9 0 10 #fcfcfc #000000 #000000 0 1;
#X obj 73 246 / 32;
#X obj 73 268 vsl 32 64 0 127 0 0 empty empty empty 0 -9 0 10 #fcfcfc #000000 #000000 0 1;
#X obj 252 251 tgl 30 0 empty empty empty 17 7 0 10 #fcfcfc #000000 #000000 0 1;
#X obj 589 136 tgl 15 0 empty empty empty 17 7 0 10 #fcfcfc #000000 #000000 0 1;
#X obj 589 180 f;
#X obj 622 179 + 1;
#X msg 589 202 0 \$1;
#X obj 589 227 oscformat clock;
#X obj 588 278 sendOSC;
#X floatatom 651 99 5 0 0 0 - - - 0;
#X obj 35 175 s incomingOSC;
#X obj 36 198 r incomingOSC;
#X obj 282 251 tgl 30 0 empty empty empty 17 7 0 10 #fcfcfc #000000 #000000 0 1;
#X obj 192 251 tgl 30 0 empty empty empty 17 7 0 10 #fcfcfc #000000 #000000 0 1;
#X obj 222 251 tgl 30 0 empty empty empty 17 7 0 10 #fcfcfc #000000 #000000 0 1;
#X obj 163 161 spigot;
#X obj 163 184 print;
#X obj 201 143 tgl 15 0 empty empty empty 17 7 0 10 #fcfcfc #000000 #000000 0 1;
#X obj 338 289 symbol;
#X obj 320 314 s;
#X msg 453 91 0;
#X obj 453 114 oscformat cancel;
#N canvas 0 28 1496 911 enableReceives 0;
#X obj 27 171 r dr1_en_decay-s;
#X msg 27 194 dr1 decay s1 \$1;
#X msg 391 193 dr2 tone s1 \$1;
#X msg 514 193 dr3 decay s1 \$1;
#X msg 634 192 dr3 tone s1 \$1;
#X obj 150 171 r dr1_en_tone-s;
#X obj 270 170 r dr2_en_decay-s;
#X obj 391 170 r dr2_en_tone-s;
#X obj 514 170 r dr3_en_decay-s;
#X obj 634 169 r dr3_en_tone-s;
#X obj 752 169 r synth_en_decay-s;
#X msg 752 192 synth decay s1 \$1;
#X obj 893 169 r synth_en_tone-s;
#X msg 893 192 synth tone s1 \$1;
#X obj 1028 169 r sampler_en_decay-s;
#X msg 1028 192 sampler decay s1 \$1;
#X obj 1174 167 r sampler_en_tone-s;
#X msg 1174 191 sampler tone s1 \$1;
#X obj 25 250 outlet;
#X obj 29 95 r dr1_en_decay-s2;
#X msg 27 118 dr1 decay s2 \$1;
#X obj 152 95 r dr1_en_tone-s2;
#X obj 272 94 r dr2_en_decay-s2;
#X msg 272 117 dr2 decay s2 \$1;
#X obj 393 94 r dr2_en_tone-s2;
#X msg 393 117 dr2 tone s2 \$1;
#X obj 516 94 r dr3_en_decay-s2;
#X msg 516 117 dr3 decay s2 \$1;
#X obj 636 93 r dr3_en_tone-s2;
#X msg 636 116 dr3 tone s2 \$1;
#X obj 754 93 r synth_en_decay-s2;
#X msg 754 116 synth decay s2 \$1;
#X obj 895 93 r synth_en_tone-s2;
#X msg 895 116 synth tone s2 \$1;
#X obj 1030 93 r sampler_en_decay-s2;
#X msg 1030 116 sampler decay s2 \$1;
#X obj 1187 93 r sampler_en_tone-s2;
#X msg 1187 117 sampler tone s2 \$1;
#X obj 34 -15 r dr1_en_decay-s3;
#X obj 157 -14 r dr1_en_tone-s3;
#X obj 277 -15 r dr2_en_decay-s3;
#X obj 398 -15 r dr2_en_tone-s3;
#X obj 521 -15 r dr3_en_decay-s3;
#X msg 398 8 dr2 tone s3 \$1;
#X msg 277 8 dr2 decay s3 \$1;
#X msg 156 9 dr1 tone s3 \$1;
#X msg 32 9 dr1 decay s3 \$1;
#X msg 521 8 dr3 decay s3 \$1;
#X msg 641 7 dr3 tone s3 \$1;
#X obj 641 -16 r dr3_en_tone-s3;
#X obj 759 -16 r synth_en_decay-s3;
#X obj 900 -16 r synth_en_tone-s3;
#X obj 1035 -16 r sampler_en_decay-s3;
#X obj 1192 -14 r sampler_en_tone-s3;
#X msg 1192 10 sampler tone s3 \$1;
#X msg 1035 7 sampler decay s3 \$1;
#X msg 900 7 synth tone s3 \$1;
#X msg 759 7 synth decay s3 \$1;
#X msg 152 118 dr1 tone s2 \$1;
#X msg 150 194 dr1 tone s1 \$1;
#X msg 270 193 dr2 decay s1 \$1;
#X connect 0 0 1 0;
#X connect 1 0 18 0;
#X connect 2 0 18 0;
#X connect 3 0 18 0;
#X connect 4 0 18 0;
#X connect 5 0 59 0;
#X connect 6 0 60 0;
#X connect 7 0 2 0;
#X connect 8 0 3 0;
#X connect 9 0 4 0;
#X connect 10 0 11 0;
#X connect 11 0 18 0;
#X connect 12 0 13 0;
#X connect 13 0 18 0;
#X connect 14 0 15 0;
#X connect 15 0 18 0;
#X connect 16 0 17 0;
#X connect 17 0 18 0;
#X connect 19 0 20 0;
#X connect 20 0 18 0;
#X connect 21 0 58 0;
#X connect 22 0 23 0;
#X connect 23 0 18 0;
#X connect 24 0 25 0;
#X connect 25 0 18 0;
#X connect 26 0 27 0;
#X connect 27 0 18 0;
#X connect 28 0 29 0;
#X connect 29 0 18 0;
#X connect 30 0 31 0;
#X connect 31 0 18 0;
#X connect 32 0 33 0;
#X connect 33 0 18 0;
#X connect 34 0 35 0;
#X connect 35 0 18 0;
#X connect 36 0 37 0;
#X connect 37 0 18 0;
#X connect 38 0 46 0;
#X connect 39 0 45 0;
#X connect 40 0 44 0;
#X connect 41 0 43 0;
#X connect 42 0 47 0;
#X connect 43 0 18 0;
#X connect 44 0 18 0;
#X connect 45 0 18 0;
#X connect 46 0 18 0;
#X connect 47 0 18 0;
#X connect 48 0 18 0;
#X connect 49 0 48 0;
#X connect 50 0 57 0;
#X connect 51 0 56 0;
#X connect 52 0 55 0;
#X connect 53 0 54 0;
#X connect 54 0 18 0;
#X connect 55 0 18 0;
#X connect 56 0 18 0;
#X connect 57 0 18 0;
#X connect 58 0 18 0;
#X connect 59 0 18 0;
#X connect 60 0 18 0;
#X restore 25 495 pd enableReceives;
#X obj 25 518 s enableToggles;
#X obj 651 123 clip 20 1000;
#N canvas 92 120 1022 302 pitchReceives 0;
#X obj 143 25 r v1-pitch-s;
#X obj 235 26 r v2-pitch-s;
#X obj 327 27 r sub-pitch-s;
#X obj 38 25 r base-pitch-s;
#X msg 38 48 0 \$1;
#X obj 38 71 oscformat setPitch;
#X obj 38 94 s outgoingOSC;
#X msg 143 48 1 \$1;
#X msg 235 49 2 \$1;
#X msg 327 50 3 \$1;
#X obj 433 29 r synthDetune-s;
#X obj 423 53 oscformat synthDetune;
#X connect 0 0 7 0;
#X connect 1 0 8 0;
#X connect 2 0 9 0;
#X connect 3 0 4 0;
#X connect 4 0 5 0;
#X connect 5 0 6 0;
#X connect 7 0 5 0;
#X connect 8 0 5 0;
#X connect 9 0 5 0;
#X connect 10 0 11 0;
#X connect 11 0 6 0;
#X restore 24 472 pd pitchReceives;
#X obj 26 111 cnv 15 320 20 empty empty MONITOR 4 10 0 14 #c4c4fc #404040 0;
#X obj 585 92 loadbang;
#X msg 585 114 1;
#X obj 651 52 r tempo;
#X obj 268 15 cnv 15 70 20 empty empty tempo 4 10 0 10 #fcc4c4 #404040 0;
#X obj 273 49 hsl 64 15 0 127 0 0 tempo tempo-r tempo -2 -8 0 10 #fcc4c4 #000000 #000000 0 1;
#X obj 651 75 expr pow($f1/127 \, 2)*400 + 50;
#X obj 589 157 metro 140;
#X obj 36 222 route pot0 pot1 pot2 pot3 sw0 sw1 sw2 sw3 module param;
#X obj 109 246 / 32;
#X obj 109 269 vsl 32 64 0 127 0 0 empty empty empty 0 -9 0 10 #fcfcfc #000000 #000000 0 1;
#X obj 147 248 / 32;
#X obj 147 270 vsl 32 64 0 127 0 0 empty empty empty 0 -9 0 10 #fcfcfc #000000 #000000 0 1;
#X floatatom 668 149 5 0 0 0 - - - 0;
#N canvas 0 22 450 300 setTempo 0;
#X obj 53 33 loadbang;
#X obj 53 56 delay 1000;
#X obj 33 59 bng 15 250 50 0 empty empty empty 17 7 0 10 #fcfcfc #000000 #000000;
#X obj 53 127 s tempo-r;
#X floatatom 8 128 5 0 0 0 - - - 0;
#X obj 53 79 random 25;
#X obj 53 102 + 50;
#X text 5 6 choose a random tempo on load;
#X connect 0 0 1 0;
#X connect 1 0 5 0;
#X connect 2 0 5 0;
#X connect 5 0 4 0;
#X connect 5 0 6 0;
#X connect 6 0 3 0;
#X restore 269 70 pd setTempo;
#X obj 35 402 bng 19 250 50 0 empty empty empty 0 -10 0 12 #fcfcfc #000000 #000000;
#X obj 34 376 r trigger;
#X connect 0 0 18 0;
#X connect 0 0 13 0;
#X connect 1 0 2 0;
#X connect 3 0 4 0;
#X connect 6 0 36 0;
#X connect 7 0 8 0;
#X connect 7 0 9 0;
#X connect 8 0 7 1;
#X connect 9 0 10 0;
#X connect 10 0 11 0;
#X connect 12 0 27 0;
#X connect 14 0 37 0;
#X connect 18 0 19 0;
#X connect 20 0 18 1;
#X connect 21 0 22 1;
#X connect 23 0 24 0;
#X connect 24 0 11 0;
#X connect 25 0 26 0;
#X connect 27 0 36 1;
#X connect 27 0 42 0;
#X connect 30 0 31 0;
#X connect 31 0 6 0;
#X connect 32 0 35 0;
#X connect 35 0 12 0;
#X connect 36 0 7 0;
#X connect 37 0 1 0;
#X connect 37 1 3 0;
#X connect 37 2 38 0;
#X connect 37 3 40 0;
#X connect 37 4 16 0;
#X connect 37 5 17 0;
#X connect 37 6 5 0;
#X connect 37 7 15 0;
#X connect 37 8 21 0;
#X connect 37 9 22 0;
#X connect 38 0 39 0;
#X connect 40 0 41 0;
#X connect 45 0 44 0;
#X coords 0 0 0.5 0.5 0 0 0;
