#N canvas 151 178 992 646 12;
#X obj 165 204 bwl-osc 1;
#X obj 167 488 vca 1;
#X obj 167 567 outlet~;
#X obj 174 9 inlet;
#X obj 168 153 sig~;
#X obj 605 508 scope;
#X obj 614 95 line~ 100;
#X msg 616 66 \$1 10;
#X obj 608 222 basic-lfo;
#X obj 381 540 scope;
#X msg 405 153 1 0 \, 0 1 1;
#X obj 405 177 vline~;
#X obj 402 211 decay 1;
#X obj 361 454 *~, f 7;
#X msg 322 107 \$1 10;
#X obj 322 131 line~;
#X floatatom 256 117 5 0 0 0 - - - 0;
#X obj 403 76 t b f;
#X floatatom 456 6 5 0 0 0 - - - 0;
#X obj 175 33 route pitch vca trigger cutoff, f 92;
#X obj 172 344 analog-filter 1;
#X connect 0 0 20 0;
#X connect 1 0 2 0;
#X connect 1 0 9 0;
#X connect 3 0 19 0;
#X connect 4 0 0 0;
#X connect 6 0 20 1;
#X connect 7 0 6 0;
#X connect 8 1 13 0;
#X connect 8 1 5 0;
#X connect 10 0 11 0;
#X connect 11 0 12 0;
#X connect 11 0 8 1;
#X connect 12 0 13 0;
#X connect 12 0 8 0;
#X connect 13 0 1 1;
#X connect 14 0 15 0;
#X connect 15 0 13 1;
#X connect 16 0 14 0;
#X connect 17 0 10 0;
#X connect 17 1 12 1;
#X connect 18 0 17 0;
#X connect 19 0 4 0;
#X connect 19 1 14 0;
#X connect 19 2 17 0;
#X connect 19 3 7 0;
#X connect 20 0 1 0;
