#N canvas 151 178 992 646 12;
#X obj 177 212 bwl-osc 1;
#X obj 190 487 vca 1;
#X obj 384 127 VCA 11;
#X obj 190 566 outlet~;
#X obj 174 9 inlet;
#X obj 168 153 sig~;
#X obj 512 91 line~ 100;
#X msg 514 62 \$1 10;
#X obj 451 264 basic-lfo;
#X obj 416 417 *~;
#X obj 175 33 route pitch vca trigger fm cutoff, f 92;
#X obj 381 540 scope;
#X obj 680 94 line~ 100;
#X msg 682 65 \$1 10;
#X obj 182 358 analog-filter 1;
#X msg 664 191 1 0 \, 0 1 1;
#X obj 664 215 vline~;
#X obj 658 259 slope 2;
#X connect 0 0 14 0;
#X connect 1 0 3 0;
#X connect 1 0 11 0;
#X connect 2 0 0 2;
#X connect 4 0 10 0;
#X connect 5 0 0 0;
#X connect 6 0 2 1;
#X connect 7 0 6 0;
#X connect 8 0 2 0;
#X connect 8 1 9 0;
#X connect 9 0 1 1;
#X connect 10 0 5 0;
#X connect 10 2 15 0;
#X connect 10 3 7 0;
#X connect 10 4 13 0;
#X connect 12 0 14 1;
#X connect 13 0 12 0;
#X connect 14 0 1 0;
#X connect 15 0 16 0;
#X connect 16 0 17 0;
#X connect 17 0 1 1;
#X connect 17 0 9 1;
