#N canvas 151 178 992 646 12;
#X obj 176 217 bwl-osc 1;
#X obj 189 359 bob-filter 1;
#X obj 190 487 vca 1;
#X obj 365 116 VCA 11;
#X obj 190 566 outlet~;
#X obj 174 9 inlet;
#X obj 168 153 sig~;
#X obj 605 508 scope;
#X obj 391 467 line~ 100;
#X obj 512 91 line~ 100;
#X msg 514 62 \$1 10;
#X obj 365 81 inlet~ 2;
#X obj 523 197 basic-lfo;
#X obj 741 199 adsr;
#X obj 567 355 *~;
#X obj 738 170 sig~;
#X obj 740 361 *~ 0.15;
#X obj 175 33 route pitch vca trigger fm cutoff, f 92;
#X obj 381 540 scope;
#X obj 680 94 line~ 100;
#X msg 682 65 \$1 100;
#X msg 393 438 \$1 10;
#X connect 0 0 1 0;
#X connect 1 0 2 0;
#X connect 1 0 18 0;
#X connect 2 0 4 0;
#X connect 3 0 0 2;
#X connect 5 0 17 0;
#X connect 6 0 0 0;
#X connect 8 0 2 1;
#X connect 9 0 3 1;
#X connect 10 0 9 0;
#X connect 11 0 3 0;
#X connect 12 1 14 0;
#X connect 13 0 14 1;
#X connect 13 0 16 0;
#X connect 13 0 7 0;
#X connect 14 0 2 1;
#X connect 15 0 13 0;
#X connect 16 0 12 0;
#X connect 17 0 6 0;
#X connect 17 1 21 0;
#X connect 17 2 15 0;
#X connect 17 3 10 0;
#X connect 17 4 20 0;
#X connect 19 0 1 1;
#X connect 20 0 19 0;
#X connect 21 0 8 0;
