#N canvas 797 135 673 523 12;
#X obj 41 73 oscformat getSequence;
#X msg 82 45 1;
#X obj 22 423 loadbang;
#X obj 22 480 text define -k seqNums;
#A set 0 ZERO \; 1 ONE \; 2 TWO \; 3 THREE \; 4 FOUR \; 5 FIVE \; 6 SIX \; 7 SEVEN \; 8 EIGHT \; 9 NINE \; 10 TEN \;;
#X msg 22 452 read numToNum.txt;
#X text 37 17 recall saved sequences from python;
#X msg 125 45 2;
#X msg 162 45 3;
#X msg 41 46 0;
#X obj 41 98 sendOSC;
#X obj 372 24 receiveOSC;
#X obj 23 360 sendOSC;
#X obj 23 326 oscformat paramName;
#X floatatom 23 293 5 0 0 0 - - - 0;
#N canvas 63 91 1322 310 sending-params-to-synth 0;
#X floatatom 20 45 5 0 0 0 - - - 0;
#X obj 20 113 s basic-osc;
#X msg 20 80 FM \$1 3;
#X text 13 6 sending parameters to synth objects (also see automatonism manual), f 36;
#X text 67 46 <- param value \, generally 0-127;
#X text 79 80 <- message box - [paramName \, \$1 (placeholder) \, object instance number], f 72;
#X text 108 112 <- send object with name of synth object as argument;
#X connect 0 0 2 0;
#X connect 2 0 1 0;
#X restore 19 254 pd sending-params-to-synth;
#X obj 374 129 symbol;
#X obj 356 154 s;
#X obj 373 98 route module param;
#X text 377 53 route incoming sequence to automitonism;
#X obj 210 336 oscformat cancel;
#X obj 209 296 bng 19 250 50 0 empty empty empty 0 -10 0 12 #fcfcfc #000000 #000000;
#X connect 0 0 9 0;
#X connect 1 0 0 0;
#X connect 2 0 4 0;
#X connect 4 0 3 0;
#X connect 6 0 0 0;
#X connect 7 0 0 0;
#X connect 8 0 0 0;
#X connect 10 0 17 0;
#X connect 12 0 11 0;
#X connect 13 0 12 0;
#X connect 15 0 16 1;
#X connect 17 0 15 0;
#X connect 17 1 16 0;
#X connect 19 0 11 0;
#X connect 20 0 19 0;
